{
	"asset":{
		"generator":"Khronos glTF Blender I/O v4.3.47",
		"version":"2.0"
	},
	"extensionsUsed":[
		"KHR_materials_specular"
	],
	"scene":0,
	"scenes":[
		{
			"name":"Scene",
			"nodes":[
				0
			]
		}
	],
	"nodes":[
		{
			"mesh":0,
			"name":"bunny.002"
		}
	],
	"materials":[
		{
			"doubleSided":true,
			"name":"body",
			"pbrMetallicRoughness":{
				"baseColorTexture":{
					"index":0
				},
				"metallicFactor":0,
				"metallicRoughnessTexture":{
					"index":1
				}
			}
		},
		{
			"doubleSided":true,
			"extensions":{
				"KHR_materials_specular":{
					"specularFactor":0
				}
			},
			"name":"head.001",
			"pbrMetallicRoughness":{
				"baseColorTexture":{
					"index":2
				},
				"metallicFactor":0,
				"metallicRoughnessTexture":{
					"index":3
				}
			}
		},
		{
			"doubleSided":true,
			"extensions":{
				"KHR_materials_specular":{
					"specularFactor":0
				}
			},
			"name":"eyes",
			"pbrMetallicRoughness":{
				"baseColorTexture":{
					"index":4
				},
				"metallicFactor":0,
				"metallicRoughnessTexture":{
					"index":5
				}
			}
		}
	],
	"meshes":[
		{
			"name":"bunny.002",
			"primitives":[
				{
					"attributes":{
						"POSITION":0,
						"NORMAL":1,
						"TEXCOORD_0":2,
						"COLOR_0":3,
						"COLOR_1":4
					},
					"indices":5,
					"material":0
				},
				{
					"attributes":{
						"POSITION":6,
						"NORMAL":7,
						"TEXCOORD_0":8,
						"COLOR_0":9,
						"COLOR_1":10
					},
					"indices":11,
					"material":1
				},
				{
					"attributes":{
						"POSITION":12,
						"NORMAL":13,
						"TEXCOORD_0":14,
						"COLOR_0":15,
						"COLOR_1":16
					},
					"indices":17,
					"material":2
				}
			]
		}
	],
	"textures":[
		{
			"sampler":0,
			"source":0
		},
		{
			"sampler":0,
			"source":1
		},
		{
			"sampler":0,
			"source":2
		},
		{
			"sampler":0,
			"source":3
		},
		{
			"sampler":0,
			"source":4
		},
		{
			"sampler":0,
			"source":5
		}
	],
	"images":[
		{
			"mimeType":"image/png",
			"name":"body_BaseColor.1001",
			"uri":"body_BaseColor_1001.png"
		},
		{
			"mimeType":"image/png",
			"name":"body_Roughness.1001",
			"uri":"body_Roughness_1001.png"
		},
		{
			"mimeType":"image/png",
			"name":"head_BaseColor.1001",
			"uri":"head_BaseColor_1001.png"
		},
		{
			"mimeType":"image/png",
			"name":"head_Roughness.1001",
			"uri":"head_Roughness_1001.png"
		},
		{
			"mimeType":"image/png",
			"name":"eyes_BaseColor.1001",
			"uri":"eyes_BaseColor_1001.png"
		},
		{
			"mimeType":"image/png",
			"name":"eyes_Roughness.1001",
			"uri":"eyes_Roughness_1001.png"
		}
	],
	"accessors":[
		{
			"bufferView":0,
			"componentType":5126,
			"count":5997,
			"max":[
				0.4991419315338135,
				0.7911813259124756,
				0.20771262049674988
			],
			"min":[
				-0.4991419315338135,
				-0.0010626439470797777,
				-0.18851535022258759
			],
			"type":"VEC3"
		},
		{
			"bufferView":1,
			"componentType":5126,
			"count":5997,
			"type":"VEC3"
		},
		{
			"bufferView":2,
			"componentType":5126,
			"count":5997,
			"type":"VEC2"
		},
		{
			"bufferView":3,
			"componentType":5121,
			"count":5997,
			"normalized":true,
			"type":"VEC4"
		},
		{
			"bufferView":4,
			"componentType":5123,
			"count":5997,
			"normalized":true,
			"type":"VEC4"
		},
		{
			"bufferView":5,
			"componentType":5123,
			"count":33552,
			"type":"SCALAR"
		},
		{
			"bufferView":6,
			"componentType":5126,
			"count":48958,
			"max":[
				0.1904437094926834,
				1.2836021184921265,
				0.1743922233581543
			],
			"min":[
				-0.19290901720523834,
				0.7494329214096069,
				-0.1613190472126007
			],
			"type":"VEC3"
		},
		{
			"bufferView":7,
			"componentType":5126,
			"count":48958,
			"type":"VEC3"
		},
		{
			"bufferView":8,
			"componentType":5126,
			"count":48958,
			"type":"VEC2"
		},
		{
			"bufferView":9,
			"componentType":5121,
			"count":48958,
			"normalized":true,
			"type":"VEC4"
		},
		{
			"bufferView":10,
			"componentType":5123,
			"count":48958,
			"normalized":true,
			"type":"VEC4"
		},
		{
			"bufferView":11,
			"componentType":5123,
			"count":289680,
			"type":"SCALAR"
		},
		{
			"bufferView":12,
			"componentType":5126,
			"count":1616,
			"max":[
				0.14920084178447723,
				1.0188246965408325,
				0.11542461067438126
			],
			"min":[
				-0.15173928439617157,
				0.8689951300621033,
				-0.03434329107403755
			],
			"type":"VEC3"
		},
		{
			"bufferView":13,
			"componentType":5126,
			"count":1616,
			"type":"VEC3"
		},
		{
			"bufferView":14,
			"componentType":5126,
			"count":1616,
			"type":"VEC2"
		},
		{
			"bufferView":15,
			"componentType":5121,
			"count":1616,
			"normalized":true,
			"type":"VEC4"
		},
		{
			"bufferView":16,
			"componentType":5123,
			"count":1616,
			"normalized":true,
			"type":"VEC4"
		},
		{
			"bufferView":17,
			"componentType":5123,
			"count":9672,
			"type":"SCALAR"
		}
	],
	"bufferViews":[
		{
			"buffer":0,
			"byteLength":71964,
			"byteOffset":0,
			"target":34962
		},
		{
			"buffer":0,
			"byteLength":71964,
			"byteOffset":71964,
			"target":34962
		},
		{
			"buffer":0,
			"byteLength":47976,
			"byteOffset":143928,
			"target":34962
		},
		{
			"buffer":0,
			"byteLength":23988,
			"byteOffset":191904,
			"target":34962
		},
		{
			"buffer":0,
			"byteLength":47976,
			"byteOffset":215892,
			"target":34962
		},
		{
			"buffer":0,
			"byteLength":67104,
			"byteOffset":263868,
			"target":34963
		},
		{
			"buffer":0,
			"byteLength":587496,
			"byteOffset":330972,
			"target":34962
		},
		{
			"buffer":0,
			"byteLength":587496,
			"byteOffset":918468,
			"target":34962
		},
		{
			"buffer":0,
			"byteLength":391664,
			"byteOffset":1505964,
			"target":34962
		},
		{
			"buffer":0,
			"byteLength":195832,
			"byteOffset":1897628,
			"target":34962
		},
		{
			"buffer":0,
			"byteLength":391664,
			"byteOffset":2093460,
			"target":34962
		},
		{
			"buffer":0,
			"byteLength":579360,
			"byteOffset":2485124,
			"target":34963
		},
		{
			"buffer":0,
			"byteLength":19392,
			"byteOffset":3064484,
			"target":34962
		},
		{
			"buffer":0,
			"byteLength":19392,
			"byteOffset":3083876,
			"target":34962
		},
		{
			"buffer":0,
			"byteLength":12928,
			"byteOffset":3103268,
			"target":34962
		},
		{
			"buffer":0,
			"byteLength":6464,
			"byteOffset":3116196,
			"target":34962
		},
		{
			"buffer":0,
			"byteLength":12928,
			"byteOffset":3122660,
			"target":34962
		},
		{
			"buffer":0,
			"byteLength":19344,
			"byteOffset":3135588,
			"target":34963
		}
	],
	"samplers":[
		{
			"magFilter":9729,
			"minFilter":9987
		}
	],
	"buffers":[
		{
			"byteLength":3154932,
			"uri":"v12_bunny.bin"
		}
	]
}
